solid neurovascular_conformal_coil
  facet normal 0 0 0
    outer loop
      vertex 0.12 0.0 0
      vertex 0.11817693036146495 0.02083778132003164 0
      vertex 0.11817693036146495 0.02083778132003164 0.2
    endloop
  endfacet
  facet normal 0 0 0
    outer loop
      vertex 0.12 0.0 0
      vertex 0.11817693036146495 0.02083778132003164 0.2
      vertex 0.12 0.0 0.2
    endloop
  endfacet
  facet normal 0 0 0
    outer loop
      vertex 0.11817693036146495 0.02083778132003164 0
      vertex 0.11276311449430901 0.04104241719908024 0
      vertex 0.11276311449430901 0.04104241719908024 0.2
    endloop
  endfacet
  facet normal 0 0 0
    outer loop
      vertex 0.11817693036146495 0.02083778132003164 0
      vertex 0.11276311449430901 0.04104241719908024 0.2
      vertex 0.11817693036146495 0.02083778132003164 0.2
    endloop
  endfacet
  facet normal 0 0 0
    outer loop
      vertex 0.11276311449430901 0.04104241719908024 0
      vertex 0.10392304845413264 0.05999999999999999 0
      vertex 0.10392304845413264 0.05999999999999999 0.2
    endloop
  endfacet
  facet normal 0 0 0
    outer loop
      vertex 0.11276311449430901 0.04104241719908024 0
      vertex 0.10392304845413264 0.05999999999999999 0.2
      vertex 0.11276311449430901 0.04104241719908024 0.2
    endloop
  endfacet
  facet normal 0 0 0
    outer loop
      vertex 0.10392304845413264 0.05999999999999999 0
      vertex 0.09192533317427737 0.0771345131623847 0
      vertex 0.09192533317427737 0.0771345131623847 0.2
    endloop
  endfacet
  facet normal 0 0 0
    outer loop
      vertex 0.10392304845413264 0.05999999999999999 0
      vertex 0.09192533317427737 0.0771345131623847 0.2
      vertex 0.10392304845413264 0.05999999999999999 0.2
    endloop
  endfacet
  facet normal 0 0 0
    outer loop
      vertex 0.09192533317427737 0.0771345131623847 0
      vertex 0.07713451316238472 0.09192533317427735 0
      vertex 0.07713451316238472 0.09192533317427735 0.2
    endloop
  endfacet
  facet normal 0 0 0
    outer loop
      vertex 0.09192533317427737 0.0771345131623847 0
      vertex 0.07713451316238472 0.09192533317427735 0.2
      vertex 0.09192533317427737 0.0771345131623847 0.2
    endloop
  endfacet
  facet normal 0 0 0
    outer loop
      vertex 0.07713451316238472 0.09192533317427735 0
      vertex 0.06000000000000001 0.10392304845413262 0
      vertex 0.06000000000000001 0.10392304845413262 0.2
    endloop
  endfacet
  facet normal 0 0 0
    outer loop
      vertex 0.07713451316238472 0.09192533317427735 0
      vertex 0.06000000000000001 0.10392304845413262 0.2
      vertex 0.07713451316238472 0.09192533317427735 0.2
    endloop
  endfacet
  facet normal 0 0 0
    outer loop
      vertex 0.06000000000000001 0.10392304845413262 0
      vertex 0.04104241719908026 0.112763114494309 0
      vertex 0.04104241719908026 0.112763114494309 0.2
    endloop
  endfacet
  facet normal 0 0 0
    outer loop
      vertex 0.06000000000000001 0.10392304845413262 0
      vertex 0.04104241719908026 0.112763114494309 0.2
      vertex 0.06000000000000001 0.10392304845413262 0.2
    endloop
  endfacet
  facet normal 0 0 0
    outer loop
      vertex 0.04104241719908026 0.112763114494309 0
      vertex 0.02083778132003165 0.11817693036146495 0
      vertex 0.02083778132003165 0.11817693036146495 0.2
    endloop
  endfacet
  facet normal 0 0 0
    outer loop
      vertex 0.04104241719908026 0.112763114494309 0
      vertex 0.02083778132003165 0.11817693036146495 0.2
      vertex 0.04104241719908026 0.112763114494309 0.2
    endloop
  endfacet
  facet normal 0 0 0
    outer loop
      vertex 0.02083778132003165 0.11817693036146495 0
      vertex 7.347880794884118e-18 0.12 0
      vertex 7.347880794884118e-18 0.12 0.2
    endloop
  endfacet
  facet normal 0 0 0
    outer loop
      vertex 0.02083778132003165 0.11817693036146495 0
      vertex 7.347880794884118e-18 0.12 0.2
      vertex 0.02083778132003165 0.11817693036146495 0.2
    endloop
  endfacet
  facet normal 0 0 0
    outer loop
      vertex 7.347880794884118e-18 0.12 0
      vertex -0.020837781320031636 0.11817693036146495 0
      vertex -0.020837781320031636 0.11817693036146495 0.2
    endloop
  endfacet
  facet normal 0 0 0
    outer loop
      vertex 7.347880794884118e-18 0.12 0
      vertex -0.020837781320031636 0.11817693036146495 0.2
      vertex 7.347880794884118e-18 0.12 0.2
    endloop
  endfacet
  facet normal 0 0 0
    outer loop
      vertex -0.020837781320031636 0.11817693036146495 0
      vertex -0.041042417199080215 0.11276311449430901 0
      vertex -0.041042417199080215 0.11276311449430901 0.2
    endloop
  endfacet
  facet normal 0 0 0
    outer loop
      vertex -0.020837781320031636 0.11817693036146495 0
      vertex -0.041042417199080215 0.11276311449430901 0.2
      vertex -0.020837781320031636 0.11817693036146495 0.2
    endloop
  endfacet
  facet normal 0 0 0
    outer loop
      vertex -0.041042417199080215 0.11276311449430901 0
      vertex -0.05999999999999997 0.10392304845413265 0
      vertex -0.05999999999999997 0.10392304845413265 0.2
    endloop
  endfacet
  facet normal 0 0 0
    outer loop
      vertex -0.041042417199080215 0.11276311449430901 0
      vertex -0.05999999999999997 0.10392304845413265 0.2
      vertex -0.041042417199080215 0.11276311449430901 0.2
    endloop
  endfacet
  facet normal 0 0 0
    outer loop
      vertex -0.05999999999999997 0.10392304845413265 0
      vertex -0.0771345131623847 0.09192533317427737 0
      vertex -0.0771345131623847 0.09192533317427737 0.2
    endloop
  endfacet
  facet normal 0 0 0
    outer loop
      vertex -0.05999999999999997 0.10392304845413265 0
      vertex -0.0771345131623847 0.09192533317427737 0.2
      vertex -0.05999999999999997 0.10392304845413265 0.2
    endloop
  endfacet
  facet normal 0 0 0
    outer loop
      vertex -0.0771345131623847 0.09192533317427737 0
      vertex -0.09192533317427734 0.07713451316238473 0
      vertex -0.09192533317427734 0.07713451316238473 0.2
    endloop
  endfacet
  facet normal 0 0 0
    outer loop
      vertex -0.0771345131623847 0.09192533317427737 0
      vertex -0.09192533317427734 0.07713451316238473 0.2
      vertex -0.0771345131623847 0.09192533317427737 0.2
    endloop
  endfacet
  facet normal 0 0 0
    outer loop
      vertex -0.09192533317427734 0.07713451316238473 0
      vertex -0.10392304845413261 0.06000000000000004 0
      vertex -0.10392304845413261 0.06000000000000004 0.2
    endloop
  endfacet
  facet normal 0 0 0
    outer loop
      vertex -0.09192533317427734 0.07713451316238473 0
      vertex -0.10392304845413261 0.06000000000000004 0.2
      vertex -0.09192533317427734 0.07713451316238473 0.2
    endloop
  endfacet
  facet normal 0 0 0
    outer loop
      vertex -0.10392304845413261 0.06000000000000004 0
      vertex -0.112763114494309 0.041042417199080264 0
      vertex -0.112763114494309 0.041042417199080264 0.2
    endloop
  endfacet
  facet normal 0 0 0
    outer loop
      vertex -0.10392304845413261 0.06000000000000004 0
      vertex -0.112763114494309 0.041042417199080264 0.2
      vertex -0.10392304845413261 0.06000000000000004 0.2
    endloop
  endfacet
  facet normal 0 0 0
    outer loop
      vertex -0.112763114494309 0.041042417199080264 0
      vertex -0.11817693036146497 0.02083778132003163 0
      vertex -0.11817693036146497 0.02083778132003163 0.2
    endloop
  endfacet
  facet normal 0 0 0
    outer loop
      vertex -0.112763114494309 0.041042417199080264 0
      vertex -0.11817693036146497 0.02083778132003163 0.2
      vertex -0.112763114494309 0.041042417199080264 0.2
    endloop
  endfacet
  facet normal 0 0 0
    outer loop
      vertex -0.11817693036146497 0.02083778132003163 0
      vertex -0.12 1.4695761589768237e-17 0
      vertex -0.12 1.4695761589768237e-17 0.2
    endloop
  endfacet
  facet normal 0 0 0
    outer loop
      vertex -0.11817693036146497 0.02083778132003163 0
      vertex -0.12 1.4695761589768237e-17 0.2
      vertex -0.11817693036146497 0.02083778132003163 0.2
    endloop
  endfacet
  facet normal 0 0 0
    outer loop
      vertex -0.12 1.4695761589768237e-17 0
      vertex -0.11817693036146497 -0.0208377813200316 0
      vertex -0.11817693036146497 -0.0208377813200316 0.2
    endloop
  endfacet
  facet normal 0 0 0
    outer loop
      vertex -0.12 1.4695761589768237e-17 0
      vertex -0.11817693036146497 -0.0208377813200316 0.2
      vertex -0.12 1.4695761589768237e-17 0.2
    endloop
  endfacet
  facet normal 0 0 0
    outer loop
      vertex -0.11817693036146497 -0.0208377813200316 0
      vertex -0.11276311449430901 -0.041042417199080236 0
      vertex -0.11276311449430901 -0.041042417199080236 0.2
    endloop
  endfacet
  facet normal 0 0 0
    outer loop
      vertex -0.11817693036146497 -0.0208377813200316 0
      vertex -0.11276311449430901 -0.041042417199080236 0.2
      vertex -0.11817693036146497 -0.0208377813200316 0.2
    endloop
  endfacet
  facet normal 0 0 0
    outer loop
      vertex -0.11276311449430901 -0.041042417199080236 0
      vertex -0.10392304845413262 -0.06000000000000001 0
      vertex -0.10392304845413262 -0.06000000000000001 0.2
    endloop
  endfacet
  facet normal 0 0 0
    outer loop
      vertex -0.11276311449430901 -0.041042417199080236 0
      vertex -0.10392304845413262 -0.06000000000000001 0.2
      vertex -0.11276311449430901 -0.041042417199080236 0.2
    endloop
  endfacet
  facet normal 0 0 0
    outer loop
      vertex -0.10392304845413262 -0.06000000000000001 0
      vertex -0.0919253331742774 -0.07713451316238466 0
      vertex -0.0919253331742774 -0.07713451316238466 0.2
    endloop
  endfacet
  facet normal 0 0 0
    outer loop
      vertex -0.10392304845413262 -0.06000000000000001 0
      vertex -0.0919253331742774 -0.07713451316238466 0.2
      vertex -0.10392304845413262 -0.06000000000000001 0.2
    endloop
  endfacet
  facet normal 0 0 0
    outer loop
      vertex -0.0919253331742774 -0.07713451316238466 0
      vertex -0.07713451316238475 -0.09192533317427734 0
      vertex -0.07713451316238475 -0.09192533317427734 0.2
    endloop
  endfacet
  facet normal 0 0 0
    outer loop
      vertex -0.0919253331742774 -0.07713451316238466 0
      vertex -0.07713451316238475 -0.09192533317427734 0.2
      vertex -0.0919253331742774 -0.07713451316238466 0.2
    endloop
  endfacet
  facet normal 0 0 0
    outer loop
      vertex -0.07713451316238475 -0.09192533317427734 0
      vertex -0.06000000000000005 -0.1039230484541326 0
      vertex -0.06000000000000005 -0.1039230484541326 0.2
    endloop
  endfacet
  facet normal 0 0 0
    outer loop
      vertex -0.07713451316238475 -0.09192533317427734 0
      vertex -0.06000000000000005 -0.1039230484541326 0.2
      vertex -0.07713451316238475 -0.09192533317427734 0.2
    endloop
  endfacet
  facet normal 0 0 0
    outer loop
      vertex -0.06000000000000005 -0.1039230484541326 0
      vertex -0.041042417199080215 -0.11276311449430901 0
      vertex -0.041042417199080215 -0.11276311449430901 0.2
    endloop
  endfacet
  facet normal 0 0 0
    outer loop
      vertex -0.06000000000000005 -0.1039230484541326 0
      vertex -0.041042417199080215 -0.11276311449430901 0.2
      vertex -0.06000000000000005 -0.1039230484541326 0.2
    endloop
  endfacet
  facet normal 0 0 0
    outer loop
      vertex -0.041042417199080215 -0.11276311449430901 0
      vertex -0.02083778132003164 -0.11817693036146495 0
      vertex -0.02083778132003164 -0.11817693036146495 0.2
    endloop
  endfacet
  facet normal 0 0 0
    outer loop
      vertex -0.041042417199080215 -0.11276311449430901 0
      vertex -0.02083778132003164 -0.11817693036146495 0.2
      vertex -0.041042417199080215 -0.11276311449430901 0.2
    endloop
  endfacet
  facet normal 0 0 0
    outer loop
      vertex -0.02083778132003164 -0.11817693036146495 0
      vertex -2.2043642384652355e-17 -0.12 0
      vertex -2.2043642384652355e-17 -0.12 0.2
    endloop
  endfacet
  facet normal 0 0 0
    outer loop
      vertex -0.02083778132003164 -0.11817693036146495 0
      vertex -2.2043642384652355e-17 -0.12 0.2
      vertex -0.02083778132003164 -0.11817693036146495 0.2
    endloop
  endfacet
  facet normal 0 0 0
    outer loop
      vertex -2.2043642384652355e-17 -0.12 0
      vertex 0.020837781320031595 -0.11817693036146497 0
      vertex 0.020837781320031595 -0.11817693036146497 0.2
    endloop
  endfacet
  facet normal 0 0 0
    outer loop
      vertex -2.2043642384652355e-17 -0.12 0
      vertex 0.020837781320031595 -0.11817693036146497 0.2
      vertex -2.2043642384652355e-17 -0.12 0.2
    endloop
  endfacet
  facet normal 0 0 0
    outer loop
      vertex 0.020837781320031595 -0.11817693036146497 0
      vertex 0.041042417199080285 -0.112763114494309 0
      vertex 0.041042417199080285 -0.112763114494309 0.2
    endloop
  endfacet
  facet normal 0 0 0
    outer loop
      vertex 0.020837781320031595 -0.11817693036146497 0
      vertex 0.041042417199080285 -0.112763114494309 0.2
      vertex 0.020837781320031595 -0.11817693036146497 0.2
    endloop
  endfacet
  facet normal 0 0 0
    outer loop
      vertex 0.041042417199080285 -0.112763114494309 0
      vertex 0.059999999999999915 -0.10392304845413268 0
      vertex 0.059999999999999915 -0.10392304845413268 0.2
    endloop
  endfacet
  facet normal 0 0 0
    outer loop
      vertex 0.041042417199080285 -0.112763114494309 0
      vertex 0.059999999999999915 -0.10392304845413268 0.2
      vertex 0.041042417199080285 -0.112763114494309 0.2
    endloop
  endfacet
  facet normal 0 0 0
    outer loop
      vertex 0.059999999999999915 -0.10392304845413268 0
      vertex 0.0771345131623847 -0.09192533317427737 0
      vertex 0.0771345131623847 -0.09192533317427737 0.2
    endloop
  endfacet
  facet normal 0 0 0
    outer loop
      vertex 0.059999999999999915 -0.10392304845413268 0
      vertex 0.0771345131623847 -0.09192533317427737 0.2
      vertex 0.059999999999999915 -0.10392304845413268 0.2
    endloop
  endfacet
  facet normal 0 0 0
    outer loop
      vertex 0.0771345131623847 -0.09192533317427737 0
      vertex 0.09192533317427734 -0.07713451316238475 0
      vertex 0.09192533317427734 -0.07713451316238475 0.2
    endloop
  endfacet
  facet normal 0 0 0
    outer loop
      vertex 0.0771345131623847 -0.09192533317427737 0
      vertex 0.09192533317427734 -0.07713451316238475 0.2
      vertex 0.0771345131623847 -0.09192533317427737 0.2
    endloop
  endfacet
  facet normal 0 0 0
    outer loop
      vertex 0.09192533317427734 -0.07713451316238475 0
      vertex 0.10392304845413265 -0.059999999999999956 0
      vertex 0.10392304845413265 -0.059999999999999956 0.2
    endloop
  endfacet
  facet normal 0 0 0
    outer loop
      vertex 0.09192533317427734 -0.07713451316238475 0
      vertex 0.10392304845413265 -0.059999999999999956 0.2
      vertex 0.09192533317427734 -0.07713451316238475 0.2
    endloop
  endfacet
  facet normal 0 0 0
    outer loop
      vertex 0.10392304845413265 -0.059999999999999956 0
      vertex 0.11276311449430901 -0.04104241719908022 0
      vertex 0.11276311449430901 -0.04104241719908022 0.2
    endloop
  endfacet
  facet normal 0 0 0
    outer loop
      vertex 0.10392304845413265 -0.059999999999999956 0
      vertex 0.11276311449430901 -0.04104241719908022 0.2
      vertex 0.10392304845413265 -0.059999999999999956 0.2
    endloop
  endfacet
  facet normal 0 0 0
    outer loop
      vertex 0.11276311449430901 -0.04104241719908022 0
      vertex 0.11817693036146495 -0.020837781320031647 0
      vertex 0.11817693036146495 -0.020837781320031647 0.2
    endloop
  endfacet
  facet normal 0 0 0
    outer loop
      vertex 0.11276311449430901 -0.04104241719908022 0
      vertex 0.11817693036146495 -0.020837781320031647 0.2
      vertex 0.11276311449430901 -0.04104241719908022 0.2
    endloop
  endfacet
  facet normal 0 0 0
    outer loop
      vertex 0.11817693036146495 -0.020837781320031647 0
      vertex 0.12 -2.9391523179536474e-17 0
      vertex 0.12 -2.9391523179536474e-17 0.2
    endloop
  endfacet
  facet normal 0 0 0
    outer loop
      vertex 0.11817693036146495 -0.020837781320031647 0
      vertex 0.12 -2.9391523179536474e-17 0.2
      vertex 0.11817693036146495 -0.020837781320031647 0.2
    endloop
  endfacet
endsolid neurovascular_conformal_coil
